<svg width="24" height="64" viewBox="0 0 64 64" fill="none" xmlns="http://www.w3.org/2000/svg">
<path d="M0 0H63.24V63.24H0V0Z" fill="white" fill-opacity="0.01"/>
<path d="M31.62 26.35C36.7135 26.35 40.8425 22.221 40.8425 17.1275C40.8425 12.0341 36.7135 7.905 31.62 7.905C26.5265 7.905 22.3975 12.0341 22.3975 17.1275C22.3975 22.221 26.5265 26.35 31.62 26.35Z" fill="#FE0808" stroke="#FFFBFB" stroke-width="5.27" stroke-linecap="round" stroke-linejoin="round"/>
<path d="M7.905 53.754V55.335H55.335V53.754C55.335 47.8511 55.335 44.8996 54.1863 42.645C53.1758 40.6617 51.5633 39.0493 49.58 38.0387C47.3254 36.89 44.3739 36.89 38.471 36.89H24.769C18.8661 36.89 15.9146 36.89 13.66 38.0387C11.6767 39.0493 10.0643 40.6617 9.05379 42.645C7.905 44.8996 7.905 47.8511 7.905 53.754Z" fill="#FE0808" stroke="#FFFBFB" stroke-width="5.27" stroke-linecap="round" stroke-linejoin="round"/>
</svg>
